<mxfile host="app.diagrams.net" modified="2022-05-31T10:23:03.523Z" agent="5.0 (Macintosh; Intel Mac OS X 10_15_7) AppleWebKit/537.36 (KHTML, like Gecko) Chrome/101.0.0.0 Safari/537.36" etag="zawujNqxlzKlvCiXZ3GZ" version="18.1.3" type="github">
  <diagram id="xshZSx2JP2BZRt7j3EUO" name="Page-1">
    <mxGraphModel dx="1298" dy="728" grid="1" gridSize="10" guides="1" tooltips="1" connect="1" arrows="1" fold="1" page="1" pageScale="1" pageWidth="850" pageHeight="1100" math="0" shadow="0">
      <root>
        <mxCell id="0" />
        <mxCell id="1" parent="0" />
        <mxCell id="DtTm24AxTZqHVivy6d-y-20" value="repeat interval" style="shape=umlFrame;whiteSpace=wrap;html=1;fontSize=14;width=110;height=40;" vertex="1" parent="1">
          <mxGeometry x="90" y="120" width="1480" height="220" as="geometry" />
        </mxCell>
        <mxCell id="DtTm24AxTZqHVivy6d-y-1" value="TxCollector Master" style="shape=umlLifeline;perimeter=lifelinePerimeter;whiteSpace=wrap;html=1;container=1;collapsible=0;recursiveResize=0;outlineConnect=0;fontSize=14;" vertex="1" parent="1">
          <mxGeometry x="180" y="40" width="100" height="870" as="geometry" />
        </mxCell>
        <mxCell id="DtTm24AxTZqHVivy6d-y-21" value="" style="html=1;points=[];perimeter=orthogonalPerimeter;fontSize=14;" vertex="1" parent="DtTm24AxTZqHVivy6d-y-1">
          <mxGeometry x="45" y="110" width="10" height="170" as="geometry" />
        </mxCell>
        <mxCell id="DtTm24AxTZqHVivy6d-y-2" value="Task Queue" style="shape=umlLifeline;perimeter=lifelinePerimeter;whiteSpace=wrap;html=1;container=1;collapsible=0;recursiveResize=0;outlineConnect=0;fontSize=14;" vertex="1" parent="1">
          <mxGeometry x="420" y="40" width="100" height="870" as="geometry" />
        </mxCell>
        <mxCell id="DtTm24AxTZqHVivy6d-y-22" value="" style="html=1;points=[];perimeter=orthogonalPerimeter;fontSize=14;" vertex="1" parent="DtTm24AxTZqHVivy6d-y-2">
          <mxGeometry x="45" y="110" width="10" height="70" as="geometry" />
        </mxCell>
        <mxCell id="DtTm24AxTZqHVivy6d-y-25" value="" style="html=1;points=[];perimeter=orthogonalPerimeter;fontSize=14;" vertex="1" parent="DtTm24AxTZqHVivy6d-y-2">
          <mxGeometry x="45" y="350" width="10" height="70" as="geometry" />
        </mxCell>
        <mxCell id="DtTm24AxTZqHVivy6d-y-3" value="TxCollector Workers" style="shape=umlLifeline;perimeter=lifelinePerimeter;whiteSpace=wrap;html=1;container=1;collapsible=0;recursiveResize=0;outlineConnect=0;fontSize=14;" vertex="1" parent="1">
          <mxGeometry x="660" y="40" width="100" height="870" as="geometry" />
        </mxCell>
        <mxCell id="DtTm24AxTZqHVivy6d-y-24" value="" style="html=1;points=[];perimeter=orthogonalPerimeter;fontSize=14;" vertex="1" parent="DtTm24AxTZqHVivy6d-y-3">
          <mxGeometry x="44.5" y="340" width="10" height="460" as="geometry" />
        </mxCell>
        <mxCell id="DtTm24AxTZqHVivy6d-y-4" value="Subgraphs" style="shape=umlLifeline;perimeter=lifelinePerimeter;whiteSpace=wrap;html=1;container=1;collapsible=0;recursiveResize=0;outlineConnect=0;fontSize=14;" vertex="1" parent="1">
          <mxGeometry x="920" y="40" width="100" height="870" as="geometry" />
        </mxCell>
        <mxCell id="DtTm24AxTZqHVivy6d-y-26" value="" style="html=1;points=[];perimeter=orthogonalPerimeter;fontSize=14;" vertex="1" parent="DtTm24AxTZqHVivy6d-y-4">
          <mxGeometry x="44.5" y="420" width="10" height="70" as="geometry" />
        </mxCell>
        <mxCell id="DtTm24AxTZqHVivy6d-y-5" value="Database" style="shape=umlLifeline;perimeter=lifelinePerimeter;whiteSpace=wrap;html=1;container=1;collapsible=0;recursiveResize=0;outlineConnect=0;fontSize=14;" vertex="1" parent="1">
          <mxGeometry x="1460" y="40" width="100" height="870" as="geometry" />
        </mxCell>
        <mxCell id="DtTm24AxTZqHVivy6d-y-23" value="" style="html=1;points=[];perimeter=orthogonalPerimeter;fontSize=14;" vertex="1" parent="DtTm24AxTZqHVivy6d-y-5">
          <mxGeometry x="44.5" y="210" width="10" height="70" as="geometry" />
        </mxCell>
        <mxCell id="DtTm24AxTZqHVivy6d-y-27" value="" style="html=1;points=[];perimeter=orthogonalPerimeter;fontSize=14;" vertex="1" parent="DtTm24AxTZqHVivy6d-y-5">
          <mxGeometry x="44.5" y="700" width="10" height="90" as="geometry" />
        </mxCell>
        <mxCell id="DtTm24AxTZqHVivy6d-y-6" value="generate tasks for each chain" style="html=1;verticalAlign=bottom;endArrow=block;rounded=0;fontSize=14;" edge="1" parent="1">
          <mxGeometry width="80" relative="1" as="geometry">
            <mxPoint x="229.5" y="160" as="sourcePoint" />
            <mxPoint x="469.5" y="160" as="targetPoint" />
          </mxGeometry>
        </mxCell>
        <mxCell id="DtTm24AxTZqHVivy6d-y-7" value="return success/failure" style="html=1;verticalAlign=bottom;endArrow=open;dashed=1;endSize=8;rounded=0;fontSize=14;" edge="1" parent="1">
          <mxGeometry relative="1" as="geometry">
            <mxPoint x="469.5" y="210" as="sourcePoint" />
            <mxPoint x="229.5" y="210" as="targetPoint" />
          </mxGeometry>
        </mxCell>
        <mxCell id="DtTm24AxTZqHVivy6d-y-8" value="pick task" style="html=1;verticalAlign=bottom;endArrow=none;rounded=0;fontSize=14;startArrow=classic;startFill=1;endFill=0;" edge="1" parent="1" target="DtTm24AxTZqHVivy6d-y-24">
          <mxGeometry width="80" relative="1" as="geometry">
            <mxPoint x="469.5" y="400" as="sourcePoint" />
            <mxPoint x="709.5" y="400" as="targetPoint" />
          </mxGeometry>
        </mxCell>
        <mxCell id="DtTm24AxTZqHVivy6d-y-9" value="return task" style="html=1;verticalAlign=bottom;endArrow=none;dashed=1;endSize=8;rounded=0;fontSize=14;startArrow=classic;startFill=1;endFill=0;" edge="1" parent="1">
          <mxGeometry relative="1" as="geometry">
            <mxPoint x="709.5" y="450" as="sourcePoint" />
            <mxPoint x="469.5" y="450" as="targetPoint" />
          </mxGeometry>
        </mxCell>
        <mxCell id="DtTm24AxTZqHVivy6d-y-10" value="get data from subgraph" style="html=1;verticalAlign=bottom;endArrow=block;rounded=0;fontSize=14;" edge="1" parent="1" target="DtTm24AxTZqHVivy6d-y-26">
          <mxGeometry width="80" relative="1" as="geometry">
            <mxPoint x="709.5" y="470" as="sourcePoint" />
            <mxPoint x="969.5" y="470" as="targetPoint" />
          </mxGeometry>
        </mxCell>
        <mxCell id="DtTm24AxTZqHVivy6d-y-12" value="return transaction records" style="html=1;verticalAlign=bottom;endArrow=open;dashed=1;endSize=8;rounded=0;fontSize=14;" edge="1" parent="1">
          <mxGeometry relative="1" as="geometry">
            <mxPoint x="969.5" y="520" as="sourcePoint" />
            <mxPoint x="709.5" y="520" as="targetPoint" />
          </mxGeometry>
        </mxCell>
        <mxCell id="DtTm24AxTZqHVivy6d-y-14" value="save to &quot;transactions&quot; table" style="html=1;verticalAlign=bottom;endArrow=block;rounded=0;fontSize=14;" edge="1" parent="1" target="DtTm24AxTZqHVivy6d-y-27">
          <mxGeometry width="80" relative="1" as="geometry">
            <mxPoint x="709.5" y="760" as="sourcePoint" />
            <mxPoint x="1219.5" y="760" as="targetPoint" />
          </mxGeometry>
        </mxCell>
        <mxCell id="DtTm24AxTZqHVivy6d-y-17" value="save last_task_timestamp to &quot;metadata&quot; table" style="html=1;verticalAlign=bottom;endArrow=block;rounded=0;fontSize=14;" edge="1" parent="1" target="DtTm24AxTZqHVivy6d-y-23">
          <mxGeometry width="80" relative="1" as="geometry">
            <mxPoint x="229.5" y="260" as="sourcePoint" />
            <mxPoint x="1219.5" y="260" as="targetPoint" />
          </mxGeometry>
        </mxCell>
        <mxCell id="DtTm24AxTZqHVivy6d-y-18" value="return success/failure" style="html=1;verticalAlign=bottom;endArrow=open;dashed=1;endSize=8;rounded=0;fontSize=14;" edge="1" parent="1" source="DtTm24AxTZqHVivy6d-y-23">
          <mxGeometry relative="1" as="geometry">
            <mxPoint x="1219.5" y="310" as="sourcePoint" />
            <mxPoint x="229.5" y="310" as="targetPoint" />
          </mxGeometry>
        </mxCell>
        <mxCell id="DtTm24AxTZqHVivy6d-y-15" value="return success/failure" style="html=1;verticalAlign=bottom;endArrow=open;dashed=1;endSize=8;rounded=0;fontSize=14;" edge="1" parent="1">
          <mxGeometry relative="1" as="geometry">
            <mxPoint x="1509.5" y="810" as="sourcePoint" />
            <mxPoint x="709.5" y="810" as="targetPoint" />
          </mxGeometry>
        </mxCell>
        <mxCell id="DtTm24AxTZqHVivy6d-y-28" value="Price API Service" style="shape=umlLifeline;perimeter=lifelinePerimeter;whiteSpace=wrap;html=1;container=1;collapsible=0;recursiveResize=0;outlineConnect=0;fontSize=14;" vertex="1" parent="1">
          <mxGeometry x="1190" y="40" width="100" height="870" as="geometry" />
        </mxCell>
        <mxCell id="DtTm24AxTZqHVivy6d-y-32" value="" style="html=1;points=[];perimeter=orthogonalPerimeter;fontSize=14;" vertex="1" parent="DtTm24AxTZqHVivy6d-y-28">
          <mxGeometry x="45" y="540" width="10" height="70" as="geometry" />
        </mxCell>
        <mxCell id="DtTm24AxTZqHVivy6d-y-30" value="fetch price of token to get tx&#39;s volume" style="html=1;verticalAlign=bottom;endArrow=block;rounded=0;fontSize=14;exitX=0.95;exitY=0.75;exitDx=0;exitDy=0;exitPerimeter=0;" edge="1" parent="1">
          <mxGeometry width="80" relative="1" as="geometry">
            <mxPoint x="714" y="595" as="sourcePoint" />
            <mxPoint x="1239.5" y="595" as="targetPoint" />
          </mxGeometry>
        </mxCell>
        <mxCell id="DtTm24AxTZqHVivy6d-y-31" value="return transaction records" style="html=1;verticalAlign=bottom;endArrow=open;dashed=1;endSize=8;rounded=0;fontSize=14;" edge="1" parent="1">
          <mxGeometry relative="1" as="geometry">
            <mxPoint x="1239.5" y="640" as="sourcePoint" />
            <mxPoint x="709.5" y="640" as="targetPoint" />
          </mxGeometry>
        </mxCell>
      </root>
    </mxGraphModel>
  </diagram>
</mxfile>
